<svg id="Layer_1" data-name="Layer 1" xmlns="http://www.w3.org/2000/svg" viewBox="0 0 304.4 304.4"><defs><style>.cls-1{fill:#fff;}</style></defs><title>brand</title><path class="cls-1" d="M481.1,234.38c.08,0,.19-.08.21-.14s0-.18-.09-.41a2.22,2.22,0,0,0-.25.43S481.07,234.39,481.1,234.38Z" transform="translate(-342.14 -117.42)"/><path class="cls-1" d="M497,239.18a7.28,7.28,0,0,0-3.16,2.22l3.3-2Z" transform="translate(-342.14 -117.42)"/><path class="cls-1" d="M489.44,234.59a.86.86,0,0,0,1-.06c.92-.54,1.86-1,2.78-1.56a5.67,5.67,0,0,0,.6-.45l-.13-.26-6,1.08.06.24C488.34,233.91,488.9,234.24,489.44,234.59Z" transform="translate(-342.14 -117.42)"/><path class="cls-1" d="M467.9,221.84l-.36-.8-.21.1.42.82Z" transform="translate(-342.14 -117.42)"/><path class="cls-1" d="M509,243.71a5.57,5.57,0,0,0,.56.46l.23-.19a20.22,20.22,0,0,0-2.76-4.11c0,1-.13,1.71.54,2.32C508.09,242.65,508.51,243.21,509,243.71Z" transform="translate(-342.14 -117.42)"/><path class="cls-1" d="M462,210l-.08,1.17C462.63,210.57,462.63,210.57,462,210Z" transform="translate(-342.14 -117.42)"/><path class="cls-1" d="M506.3,237.27l-.82.69C506.13,237.79,506.14,237.77,506.3,237.27Z" transform="translate(-342.14 -117.42)"/><path class="cls-1" d="M508,248.4c.37,1.83.73,3.66,1.14,5.49a2.67,2.67,0,0,0,.46.74l.26-.12a17.69,17.69,0,0,0-1.68-6.51A.51.51,0,0,0,508,248.4Z" transform="translate(-342.14 -117.42)"/><path class="cls-1" d="M501.79,241.47l3.92,5.37c-.18-1.3,0-2.51-1-3.41A6.61,6.61,0,0,0,501.79,241.47Z" transform="translate(-342.14 -117.42)"/><path class="cls-1" d="M502.91,236l-.07-.19c-.19,0-.42-.11-.58,0a4.69,4.69,0,0,0-1,.52c-1.17.8-2.34,1.62-3.5,2.44,0,0,0,.12.05.31Z" transform="translate(-342.14 -117.42)"/><path class="cls-1" d="M445.76,205.55c-.39,1-.82,1.95-1.17,2.94s-.55,1.89-.87,2.83a6.29,6.29,0,0,0-.41,3,4.24,4.24,0,0,1-.07,1.32c-.67,4-1.39,8-2,12S440,236,439.45,240.2a44.39,44.39,0,0,0-.66,7.27c0,1.11,0,2.22,0,3.33,0,.59-.12,1.17-.19,1.76a38.79,38.79,0,0,1-.38-4.83,47.74,47.74,0,0,1,0-5.18c.37-4.3.87-8.6,1.67-12.85.07-.4.09-.81.15-1.21s.13-.79.2-1.19c-.24.08-.34.19-.36.31q-.53,2.82-1,5.65a4.89,4.89,0,0,0,0,.55c0,.62,0,1.25-.13,1.86-.41,3-.85,6-1.27,9a8.42,8.42,0,0,0,0,1.32c0,1.88,0,3.76.16,5.63s.46,3.43.67,5.15.4,3.63.61,5.45c.68-.31.7-.31.57-.81A19.52,19.52,0,0,1,439,256c0-1.54,0-3.08.16-4.63.29-2.89.29-5.82.59-8.71a96.29,96.29,0,0,1,1.68-11.16c.93-4.14,1.59-8.34,2.37-12.51q1.35-7.24,2.71-14.48c.08-.43.1-.87.15-1.31a4.47,4.47,0,0,0-.55,1.35C446,204.87,445.89,205.21,445.76,205.55Z" transform="translate(-342.14 -117.42)"/><path class="cls-1" d="M504.75,238.92c.22-.3.42-.6.63-.91a4.49,4.49,0,0,0-2.08,1.25A1.15,1.15,0,0,0,504.75,238.92Z" transform="translate(-342.14 -117.42)"/><path class="cls-1" d="M441.07,254.79c.07-.61.13-1.21.2-1.82.14-1.24.14-1.24-.22-1.63A5.93,5.93,0,0,0,441.07,254.79Z" transform="translate(-342.14 -117.42)"/><path class="cls-1" d="M445.84,288.53c-.27-.34-.47-.64-.7-.91a6.19,6.19,0,0,1-1.32-3,4.43,4.43,0,0,0-.09-.54c-.46-1.45-1.13-2.85-.89-4.44,0-.09-.09-.19-.15-.34l-.78.07-.49-1.9-2.31.8L437.66,276c-.61-1-.55-1.32.39-2s1.62-1.2,2.43-1.79c1.1-.8,2.17-1.63,3.31-2.37a2.35,2.35,0,0,0,1.35-1.89l2.22-1.23a8.34,8.34,0,0,0-2.57-.34.89.89,0,0,0-.4.17c-1.6,1.12-3.2,2.24-4.78,3.39-.6.43-1.14.94-1.74,1.36s-1.28.81-1.91,1.21c-.73-1.15-.73-1.49-.05-2l4.36-3.18c.65-.48,1.27-1,1.93-1.47,1.39-1,2.78-1.94,4.2-2.85s2.64-1.56,4-2.33L454.9,258c1.08-.63,2.16-1.26,3.25-1.86,1.24-.69,2.51-1.35,3.75-2,1-.54,1.91-1.11,2.85-1.69s1.74-1.15,2.64-1.7c.31-.19.63-.35.49-.74-.3-.87-.63-1.73-1-2.57-.26-.61-.62-1.17-.87-1.79-.34-.85-.39-.89-1.13-.4a1.2,1.2,0,0,0-.28.18,5.63,5.63,0,0,1-2,1.14c-.67.35-1.07,1.19-1.69,1.67-1.79,1.4-3.65,2.73-5.46,4.11-2.12,1.61-4.21,3.24-6.32,4.87-.87.68-1.72,1.38-2.61,2s-1.8,1.27-2.7,1.9c-1.2.83-2.39,1.68-3.61,2.49q-2.07,1.36-4.19,2.65c-.67.4-1.4.71-2.12,1.07-.27-.93-.28-.94.21-1.36.84-.71,1.7-1.4,2.49-2-.16-.69-.31-1.28-.44-1.88s-.3-1.44-.43-2.16c-.22-1.19-.48-2.37-.63-3.56-.07-.55-.13-1.1-.19-1.66l-3.17,1.62c.18,2.26.45,4.52.66,6.78a1.67,1.67,0,0,1-.52-.95c-.27-1.34-.52-2.68-.8-4a9.94,9.94,0,0,0-.43-1.18c-.13.39-.24.54-.22.66.54,2.62,1,5.27,1.69,7.85A51.86,51.86,0,0,0,437,276.74c-.34.35-.52.53-.56.71l1.12,2.09.88.1a5.43,5.43,0,0,0-.21.78c0,.1,0,.2,0,.3l1.17,2.2.27.36,1-.64-.43,1.89.08.16,1.25-.47c.41.67.41.76-.25.81-.43,0-.56.19-.58.44l.21.39a5.6,5.6,0,0,1,2.08.44,6.71,6.71,0,0,1,1.44,1.79,1.23,1.23,0,0,0,.13.18A1.12,1.12,0,0,0,445.84,288.53Z" transform="translate(-342.14 -117.42)"/><path class="cls-1" d="M436.71,278.26l.11.22.53,1,0,0c-.3-.58-.61-1.16-.9-1.74A4.11,4.11,0,0,0,436.71,278.26Z" transform="translate(-342.14 -117.42)"/><path class="cls-1" d="M467.9,244.27c-.59-1.36-.59-1.36-1.16-1.76C467.12,243.13,467.08,243.81,467.9,244.27Z" transform="translate(-342.14 -117.42)"/><path class="cls-1" d="M445.16,292.55a5.6,5.6,0,0,0,3,4l.27-.13-2.37-4.57Z" transform="translate(-342.14 -117.42)"/><path class="cls-1" d="M459.84,260.2c-.46.38-1.08.61-1.36,1.42C459.29,261.31,459.74,260.92,459.84,260.2Z" transform="translate(-342.14 -117.42)"/><path class="cls-1" d="M438.23,281.33c.17.29.37.56.57.83l-.63-1.16A.64.64,0,0,0,438.23,281.33Z" transform="translate(-342.14 -117.42)"/><path class="cls-1" d="M450.79,187a16.06,16.06,0,0,0,1-2.37,10.52,10.52,0,0,0-2.65,4A6.87,6.87,0,0,0,450.79,187Z" transform="translate(-342.14 -117.42)"/><path class="cls-1" d="M434.62,251.42c-.15-1.73-.29-3.46-.43-5.19l-1.45,6.43c.37-2.91.8-5.81,1.26-8.71,0-.48-.08-1-.12-1.43-.12-1.66-.19-3.32-.26-5a47.55,47.55,0,0,1,.31-9.6,2.09,2.09,0,0,0-.21-1.62,78.46,78.46,0,0,0-1.55,9.28c-.3,3-.49,6.11-.58,9.17s-.11,6.21,0,9.3c0,.71.08,1.43.14,2.14a16.76,16.76,0,0,1,3.14-1.83Q434.75,252.9,434.62,251.42Z" transform="translate(-342.14 -117.42)"/><path class="cls-1" d="M443.81,201.22c-.58,1.7-1.16,3.41-1.65,5.14s-.79,3.3-1.19,4.94-.82,3.14-1.16,4.73a11.91,11.91,0,0,0-.19,1.41c1.35-5.08,2.83-10.13,4.47-15.13l-1.32,5.85c1.46-4.64,3-9.25,4.58-13.93a8.51,8.51,0,0,0-2.2,3.36C444.83,198.83,444.23,200,443.81,201.22Z" transform="translate(-342.14 -117.42)"/><path class="cls-1" d="M440.73,285.85l.13,0-.15-.27A2.19,2.19,0,0,0,440.73,285.85Z" transform="translate(-342.14 -117.42)"/><path class="cls-1" d="M440.17,284.74l0,0,0-.05Z" transform="translate(-342.14 -117.42)"/><path class="cls-1" d="M514.33,251.44l-.38-.87-.2.1.39.86Z" transform="translate(-342.14 -117.42)"/><path class="cls-1" d="M506.09,194.09a13,13,0,0,0,.37,1.33c.58,1.47,1.19,2.94,1.8,4.4,1.46,3.5,2.93,7,4.38,10.5a8.66,8.66,0,0,0,1.79,2.3c.1-1.15.56-2.22,0-3.35-.89-1.82-1.67-3.7-2.54-5.53-1.06-2.23-2.1-4.46-3.26-6.63C508,196,507.77,194.55,506.09,194.09Z" transform="translate(-342.14 -117.42)"/><path class="cls-1" d="M420.16,279.88l-.69-.15,0,.3.7.08Z" transform="translate(-342.14 -117.42)"/><path class="cls-1" d="M428.25,276c-.44-.1-.52.16-.56.59C428.12,276.51,428.34,276.38,428.25,276Z" transform="translate(-342.14 -117.42)"/><path class="cls-1" d="M403.06,304.3l.18.26a1.73,1.73,0,0,0,.61-.08,9.91,9.91,0,0,0,2.92-2.61c.1-.12,0-.41,0-.85C405.33,302.17,403.86,302.87,403.06,304.3Z" transform="translate(-342.14 -117.42)"/><path class="cls-1" d="M411.9,294.9c-2.68,1.6-5.37,3.2-8,4.83a22.71,22.71,0,0,0-2.44,1.68c-.74.6-1.38,1.33-2.1,2-1,.89-2.08,1.74-3.09,2.63-.52.46-1.22.78-1.46,1.52a.84.84,0,0,0,1.09-.13,15.12,15.12,0,0,0,2.45-1.8c.76-.84,2-1.2,2.74-2.15,0,0,.06,0,.09-.06.38-.26.77-.52,1.15-.79l4-2.89c.5-.36,1-.69,1.53-1.06s.74-.61,1.12-.9l4.32-3.22-.15-.27C412.73,294.47,412.3,294.66,411.9,294.9Z" transform="translate(-342.14 -117.42)"/><path class="cls-1" d="M409.69,299c-.08,0-.18.05-.27.09.06.09.11.22.19.27s.16-.07.29-.14C409.81,299.09,409.76,299,409.69,299Z" transform="translate(-342.14 -117.42)"/><path class="cls-1" d="M411.34,297.76l.1.13.38-.26-.13-.17Z" transform="translate(-342.14 -117.42)"/><path class="cls-1" d="M570.93,198.86l-.76.41C570.56,199.39,570.85,199.32,570.93,198.86Z" transform="translate(-342.14 -117.42)"/><path class="cls-1" d="M564.46,197.82l.59-.55C564.77,197.32,564.44,197.31,564.46,197.82Z" transform="translate(-342.14 -117.42)"/><path class="cls-1" d="M521.67,211.52c-.37-.9-.74-1.81-1.12-2.71a.58.58,0,0,0-.87-.31C520.05,209.88,521,211.27,521.67,211.52Z" transform="translate(-342.14 -117.42)"/><path class="cls-1" d="M537.69,218.36l.59-.44-.59.44Z" transform="translate(-342.14 -117.42)"/><path class="cls-1" d="M561.49,202.2l-1,.3C561.13,202.73,561.13,202.73,561.49,202.2Z" transform="translate(-342.14 -117.42)"/><path class="cls-1" d="M431.95,280.82c0,.17.19.32.3.48a2,2,0,0,0,.41-.38c.06-.1,0-.27,0-.41l-.52-.39A2.23,2.23,0,0,0,431.95,280.82Z" transform="translate(-342.14 -117.42)"/><path class="cls-1" d="M517.73,279.53l-.24,0-.07.65.16,0Z" transform="translate(-342.14 -117.42)"/><path class="cls-1" d="M429.66,282.25c.92.42,1,.39.93-.77Z" transform="translate(-342.14 -117.42)"/><path class="cls-1" d="M507.61,295.37a4.1,4.1,0,0,0-1.3.26,3.89,3.89,0,0,0-1.08,1.09,9.25,9.25,0,0,1-2.87,3.13,10.54,10.54,0,0,0-1.53,1.23c-.62.55-.64.9-.05,1.82C503.14,300.55,505.75,298.49,507.61,295.37Z" transform="translate(-342.14 -117.42)"/><path class="cls-1" d="M459.94,307.39l1.11.33C460.82,307,460.57,306.86,459.94,307.39Z" transform="translate(-342.14 -117.42)"/><path class="cls-1" d="M515.56,254.5c.14-.36.17-.69-.3-.86l.3.86Z" transform="translate(-342.14 -117.42)"/><path class="cls-1" d="M516.61,282.55l-.3,0a13.52,13.52,0,0,0-.65,1.61,26.24,26.24,0,0,1-2.65,5.93,37.34,37.34,0,0,1-6.41,8.81c-1.21,1.18-2.47,2.32-3.73,3.45-.57.51-1.19,1-1.79,1.45a1.67,1.67,0,0,0-.22.36l.45.52c1.08-.79,2.11-1.44,3-2.23a18.62,18.62,0,0,0,3.21-3.17c.74-1.05,1.62-2,2.4-3a43,43,0,0,0,3.87-5.75,30.14,30.14,0,0,0,2.72-6.76A5.57,5.57,0,0,0,516.61,282.55Z" transform="translate(-342.14 -117.42)"/><path class="cls-1" d="M496.64,308.92c1.35.15,2-.18,2.89-1.52A4.29,4.29,0,0,0,496.64,308.92Z" transform="translate(-342.14 -117.42)"/><path class="cls-1" d="M454.12,215.11l-.25.12a4.87,4.87,0,0,0,.2.58c.45.93,1,1.82,1.35,2.77.54,1.33,1,2.69,1.47,4a1.25,1.25,0,0,0,.85,1c-1-2.62-1.88-5.06-2.82-7.48A4.47,4.47,0,0,0,454.12,215.11Z" transform="translate(-342.14 -117.42)"/><path class="cls-1" d="M512.23,285.67a58.92,58.92,0,0,0,3-7.69q.7-2.59,1.32-5.21a16,16,0,0,0,.3-5.06c-.15-1.77,0-3.61-.83-5.29-.47-.93-.89-1.9-1.33-2.84l-.18,0a6.28,6.28,0,0,0,0,.94,67.51,67.51,0,0,1,.22,9.5c0,1.39.11,2.81-.58,4.12a2.08,2.08,0,0,0-.08.87,25.73,25.73,0,0,1-1.41,8.36c-.38,1-.71,2.08-1.06,3.12A1.92,1.92,0,0,0,512.23,285.67Z" transform="translate(-342.14 -117.42)"/><path class="cls-1" d="M501.76,171c1.62-.71,2.34-1.49,2.22-2.43C503.34,169.45,502.34,169.88,501.76,171Z" transform="translate(-342.14 -117.42)"/><path class="cls-1" d="M485.92,161l-.09-.39a5.21,5.21,0,0,0-1.37.05,16.48,16.48,0,0,0-2.47,1c-2.21,1.09-4.38,2.24-6.58,3.35a14.3,14.3,0,0,0-2.19,1,22.79,22.79,0,0,0-4.42,4.13s.05.11.13.26A58.47,58.47,0,0,1,485.92,161Z" transform="translate(-342.14 -117.42)"/><path class="cls-1" d="M542.62,252.41l-.51-1A1.28,1.28,0,0,0,542.62,252.41Z" transform="translate(-342.14 -117.42)"/><path class="cls-1" d="M517.17,353.31c-.2-.51-.37-1-.61-1.54a2.72,2.72,0,0,0-1.06-1.25,29.16,29.16,0,0,0,1.13,3.58,24.92,24.92,0,0,0,1.3,2.43l.24-.09c-.12-.51-.21-1-.37-1.54S517.38,353.84,517.17,353.31Z" transform="translate(-342.14 -117.42)"/><path class="cls-1" d="M449.91,288.23a6.1,6.1,0,0,0-1.71-2.83c-.1-.11-.35-.09-.79-.19A9.91,9.91,0,0,0,449.91,288.23Z" transform="translate(-342.14 -117.42)"/><path class="cls-1" d="M485.76,293.14l0,0Z" transform="translate(-342.14 -117.42)"/><path class="cls-1" d="M519.69,366.67c0,.58,0,.58.5.54Z" transform="translate(-342.14 -117.42)"/><path class="cls-1" d="M485.55,306c-.18,0-.33.23-.49.35l.48.48,1-.73C486.14,305.65,485.83,305.94,485.55,306Z" transform="translate(-342.14 -117.42)"/><path class="cls-1" d="M478.81,274.63l.4.68C479.23,275.08,479.3,274.81,478.81,274.63Z" transform="translate(-342.14 -117.42)"/><path class="cls-1" d="M492.19,307.23a41.53,41.53,0,0,1-1.93-3.8l-1.86-4,0,.19-.17,0-.22-.86h0l-2.74-5.89a.92.92,0,0,0-.54.14c-.27,1.12.76,1.89.79,3.12-.17-.29-.26-.4-.32-.53-.38-.84-.73-1.7-1.14-2.53a23.24,23.24,0,0,1-1.34-2.62,24.75,24.75,0,0,0-1.6-3.84,12.14,12.14,0,0,1-1.25-3.86,3,3,0,0,0-.51-1,4.58,4.58,0,0,1-.44-.63c-.63-1.6-1.24-3.21-1.84-4.82-.43-1.14-.82-2.29-1.26-3.42s-.82-2-1.21-3c-.28-.71-.5-1.45-.77-2.17-.66-1.76-1.34-3.52-2-5.29a3.43,3.43,0,0,1-.09-.63l1.45.16c-.33-.82-.62-1.5-.88-2.19a1.37,1.37,0,0,1,.47-1.57c.55-.38,1-.13,1.33.32.05.06.18.07.28.1a3.49,3.49,0,0,1,.15-1.16c.42-.8.95-1.55,1.47-2.39l3.27.36c.26.66.51,1.28.74,1.9a51.65,51.65,0,0,0,2.53,6.58,3.34,3.34,0,0,1,.16.53c.53,1.61,1.05,3.22,1.6,4.83.82,2.41,1.67,4.8,2.48,7.21s1.66,5,2.5,7.54c.52,1.54,1.06,3.06,1.6,4.59.23.66.48,1.31.76,1.95a29.85,29.85,0,0,1,1.36,3c.65,2.1,2,3.93,2.37,6.12a23.09,23.09,0,0,1,1.8,3.66,1.3,1.3,0,0,1,0,1.32s0,.14.06.26l.7,0,.31.86c-1.17.61-1.87,2-3.63,1.72-.23-.5-.53-1.07-.76-1.68q-1.21-3.21-2.38-6.44c-.66-1.8-1.29-3.61-1.93-5.42-.15-.42-.29-.84-1-.64l2.1,4.91c1.1,2.57,2.2,5.31,2.21,8.06l.78,2.13c.2,0,.57.18.83.07,1.08-.43,2.14-.92,3.19-1.43a12.6,12.6,0,0,0,1.59-.93,1.1,1.1,0,0,0,.57-1.21c-.15-.6-.32-1.2-.52-1.79-.53-1.6-1-3.2-1.61-4.79-.31-.86-.69-1.7-1-2.54l-.3-.71-.43,1a3.2,3.2,0,0,1-.08-1.11c.23-.63.06-.89-.59-1-.17,0-.36-.25-.44-.43-.67-1.43-1.35-2.85-2-4.31s-1.22-3.15-1.84-4.72c-.69-1.75-1.43-3.48-2.1-5.24-.85-2.2-1.65-4.42-2.48-6.63-.67-1.79-1.35-3.58-2-5.37-.42-1.18-.81-2.37-1.2-3.55-.3-.91-.58-1.83-.87-2.74l-1.63-5c0-.1-.05-.2-.08-.32l.61-.17c.39-.73-.73-1.34,0-2.14.66,1.48,1.36,2.89,1.91,4.35.9,2.37,1.69,4.79,2.53,7.18s1.73,5,2.64,7.51c.84,2.28,1.74,4.54,2.62,6.8q1.91,4.9,3.82,9.79c.7,1.79,1.38,3.58,2.09,5.36.22.56.52,1.1.78,1.65l.28.12a1.86,1.86,0,0,1,.22-.4c1.47-1.59,3-3.15,4.41-4.79a18.65,18.65,0,0,0,2-2.85,25,25,0,0,0,1.5-3.2,25.27,25.27,0,0,0,1.29-3.64c.67-2.84,1.25-5.7,1.8-8.57a37.91,37.91,0,0,0,.49-4.06,15.25,15.25,0,0,0-.45-4.93c-.43-1.75-.75-3.52-1.14-5.28-.29-1.33-.61-2.65-.93-4a7,7,0,0,0-.45-1.45c-.52-1.06-1.09-2.09-1.67-3.12a33.16,33.16,0,0,0-4-6.13c-.66-.74-1.31-1.49-2-2.31-2.47,1.28-4.82,3.1-7.62,4.52l.42-3.82c-1.18-.13-2.28-.24-3.37-.38a3,3,0,0,0-2,.45c-.61.38-1.26.68-2.11,1.12L485,242a2.8,2.8,0,0,0-.7.28,13.28,13.28,0,0,1-2.52,1.77,12,12,0,0,0-2.27,1.89.83.83,0,0,1-1.28,0c.43-.34.78-.64,1.15-.9.21-.15.46-.22.67-.37,1.34-1,2.66-2,4-2.9a1.55,1.55,0,0,0,.77-1.26c0-.33.07-.66.07-1A1.47,1.47,0,0,1,486,238a4.48,4.48,0,0,0,.68-.37l-.88-3.39a2.76,2.76,0,0,0-2-.25,4.91,4.91,0,0,0-1.13.28c-.52.24-1,.56-1.51.84a8.94,8.94,0,0,0-2,1,7.06,7.06,0,0,1-2.15,1.25,3,3,0,0,0-1.38,1.12c.33.89.64,1.78,1,2.67s.72,1.79,1.09,2.68l-.14.06-1.12-1.19a5,5,0,0,0-1.17-3.1,1.61,1.61,0,0,1-.5-1.73,1.89,1.89,0,0,1-1-1.38q-.36-1.49-.81-3c-.27-.88-.73-1.12-1.76-1-.38,1.32.42,2.33.94,3.46-.75.48-.91-.27-1.24-.71l-.12.73,4,11.77a70.18,70.18,0,0,1-4.05-11.49c-.09.55-.18,1.08-.25,1.61-.09.73-.14,1.47-.18,2.21a.89.89,0,0,0,.15.62c.7.69.37,1.49.35,2.37a18.38,18.38,0,0,1-2.16-4.27c-.66-1.56-1.18-3.18-1.78-4.76-.34-.89-.79-1.75-1.1-2.65-1-2.86-1.91-5.73-2.88-8.59a3,3,0,0,0-.31-.54c-.68.2-.81.5-.56,1s.48,1.16.7,1.75c1.12,2.93,2.18,5.89,3.38,8.78a28.68,28.68,0,0,1,1.34,3.6c.5,1.85.82,3.83,2.08,5.41a1,1,0,0,1,.16.63c0,.74-.06,1.48-.13,2.21a1.22,1.22,0,0,1-1,1.26c.07.33.11.59.18.83s.19.55.28.83a1.73,1.73,0,0,1-1.12,2.47,10.39,10.39,0,0,0-1.44.8c-.52.33-1,.76-1.53,1a5.59,5.59,0,0,0-1.51,1,16.77,16.77,0,0,1-2.27,1.69c-.15.6-.68,1.33-.17,2.17l.56.06c-.37.56-.7,1.12-1.07,1.64a2.94,2.94,0,0,1-.47.46,5.26,5.26,0,0,0,1.24-.55c1-.76,2-1.6,3-2.41s2-1.66,3-2.47q2.08-1.7,4.18-3.37c.48-.38.78-.17.95.16l-1.18,1.64a2.15,2.15,0,0,0-1.76,1.91c1.22-.07,2.43-.86,3.81,0a13.06,13.06,0,0,0-2.35,2s-.07,0-.09.06q-2.49,1.94-5,3.88a1.9,1.9,0,0,0-.3.44c1,.29,1.5-.37,2-.83a49.18,49.18,0,0,1,5.72-4.33c.37-.25.7-.28,1,.09s0,.58-.33.77c-2.76,1.82-5.51,3.66-8.28,5.47a17.29,17.29,0,0,1-3,1.78,11.09,11.09,0,0,0-3.07,1.93c-1.86,1.56-3.6,3.26-5.4,4.89-1.09,1-2.18,2-3.34,2.91A15.56,15.56,0,0,0,448.4,276a2.36,2.36,0,0,1-1.18.52c-1.1.28-2.22.52-3.32.78a4.81,4.81,0,0,0-.64.25l-.14-.18c.5-.62,1-1.24,1.51-1.85.33-.4.68-.77,1-1.17s.75-1,1.16-1.44.74-.71,1.11-1.08c.59-.6,1.15-1.22,1.77-1.79s1.53-1.28,2.25-2c1.23-1.16,2.43-2.35,3.63-3.54a2.12,2.12,0,0,0,.28-.49,2,2,0,0,0-1,.49c-.51.42-1,.84-1.52,1.27-1,.87-2.12,1.72-3.13,2.63s-1.93,1.92-2.93,2.85c-.74.68-.79.65-1.4-.15a1.73,1.73,0,0,0-.62,1.77,1,1,0,0,1-.52,1.21c-.37.23-.87.45-1,.8-.31.7-.88.92-1.46,1.25s-1.08.57-.82,1.34h0l.85,1.14,1.59-.41c.14.5.26.88.34,1.27a23.23,23.23,0,0,0,.48,2.6,68.27,68.27,0,0,0,2.4,7.3c.86,1.94,1.65,3.94,2.57,5.86a13.77,13.77,0,0,0,1.15,1.67c.35-.72-.11-1-.32-1.33s-.45-.85-.67-1.27-.41-.79-.59-1.19-.39-.88-.57-1.32-.42-.7-.27-1.15a.4.4,0,0,1,.25.25,23.49,23.49,0,0,0,3.15,4.93c1.19,1.49,2.5,2.9,3.79,4.32a44,44,0,0,0,6,5.69,13.19,13.19,0,0,0,4.2,2.42,29.36,29.36,0,0,0,6.12.94q2.76.18,5.52.31a2.35,2.35,0,0,0,.65-.16v-.23c-1.3-.21-2.62-.35-3.9-.63s-2.77-.69-4.14-1.1a15.19,15.19,0,0,1-4.06-2c-1.85-1.22-3.78-2.32-5.53-3.66a69.42,69.42,0,0,1-6.83-5.95,29.81,29.81,0,0,1-7.19-11,49.08,49.08,0,0,1-1.28-5.13,1.4,1.4,0,0,1,.07-.49,16,16,0,0,1,2.21,4c1.18,1,1.5,2.69,2.73,3.81l.33-1.17c.66.8,1.26,1.49,1.83,2.21.73.93,1.38,1.93,2.15,2.81,1.07,1.21,2.26,2.3,3.33,3.51a18,18,0,0,0,3.77,3.19c2.44,1.59,4.85,3.21,7.29,4.8a11.66,11.66,0,0,0,2.31,1.28,10.83,10.83,0,0,0,2.5.44,39.17,39.17,0,0,0,9.72-.17c1.08-.15,2.15-.39,3.22-.63.44-.1.75,0,.9.4.31.78.58,1.57.91,2.47l-2.9.73c-.28.22-.81.27-.59.91.73.06,1.42.23,2.1-.44a1.88,1.88,0,0,1,1.8-.55c-.06.92-.34,1.28-1,1.47-.89.23-1.77.49-2.65.74-.3.08-.59.19-.54.58s.43.51.76.42c.7-.18,1.39-.44,2.09-.66.11,0,.32-.12.34-.09.28.47.57.11.86,0l1.21-.3.42,1c.47-.19,1-.23,1.09-.47s0-.72,0-1.3l1,1a1.07,1.07,0,0,0,.1-1.18Zm-19.72-69.92a1.11,1.11,0,0,1-.12-.27s.08-.09.12-.14a1.18,1.18,0,0,1,.16.24S472.54,237.24,472.47,237.32Zm.86,3.39c0-.08.1-.23.16-.24.37,0,.49.2.5.61C473.58,241.17,473.35,241.08,473.33,240.7Zm-2-1.17s-.11-.09-.12-.15,0-.11.06-.17l.21.17Zm12.39,11.52.24-2.22a4.38,4.38,0,0,1,2.61.36Zm-7-5.71.11.15-.45.35-.14-.21Zm-4.15,5,3.66-2.57v0l0,0,0,0h0c.37-.54.38-.55,1.16-.91,0,.28.07.55,0,.69a.82.82,0,0,1-1.13.22v0h0l.11.49a1.35,1.35,0,0,0-1.17,1.2.17.17,0,0,1,0,.1c-.64.58-1.27,1.18-1.94,1.73-.1.09-.44,0-.58-.1a1,1,0,0,1-.2-.57A.37.37,0,0,1,472.57,250.32ZM484,246a27.41,27.41,0,0,1,6.69-3.07l-20.1,10.76Zm-10.71,8.56c-.11-.18-.24-.31-.22-.4a.38.38,0,0,1,.3-.22.37.37,0,0,1,.24.27C473.58,254.35,473.42,254.44,473.26,254.6Zm17.65,52.56-.72-2.1.15-.05.78,2.08Z" transform="translate(-342.14 -117.42)"/><path class="cls-1" d="M486.77,293.12a.54.54,0,0,0-.27.07l-.11.59,1.17,1.18C487.27,294.35,487,293.74,486.77,293.12Z" transform="translate(-342.14 -117.42)"/><path class="cls-1" d="M508.58,345l.34.93.19-.06-.28-1Z" transform="translate(-342.14 -117.42)"/><path class="cls-1" d="M512.6,360.81l.25-.2-.43-.58Z" transform="translate(-342.14 -117.42)"/><path class="cls-1" d="M517,368.22c1.18.54,1.18.54,1.12-.31Z" transform="translate(-342.14 -117.42)"/><path class="cls-1" d="M480.18,277l-.93-1.52C479.42,276.28,479.6,276.63,480.18,277Z" transform="translate(-342.14 -117.42)"/><path class="cls-1" d="M505.31,343.84a1.15,1.15,0,0,0,.08.35s.17,0,.37,0a3.21,3.21,0,0,0-.26-.38S505.37,343.83,505.31,343.84Z" transform="translate(-342.14 -117.42)"/><path class="cls-1" d="M506.45,346.53c0-.09-.26-.14-.53-.27a10.34,10.34,0,0,0,.85,2.65C506.67,348.11,506.58,347.32,506.45,346.53Z" transform="translate(-342.14 -117.42)"/><path class="cls-1" d="M461.78,308.26c.16.3.36.51.94.3l-.79-.5Z" transform="translate(-342.14 -117.42)"/><path class="cls-1" d="M486,313l.06.21.66-.19-.06-.21Z" transform="translate(-342.14 -117.42)"/><path class="cls-1" d="M484.17,311.67c1.66.28,2.82-.53,4.08-1A5.68,5.68,0,0,0,484.17,311.67Z" transform="translate(-342.14 -117.42)"/><path class="cls-1" d="M494.34,117.42a152.2,152.2,0,1,0,152.2,152.2A152.2,152.2,0,0,0,494.34,117.42Zm22.72,82.76c.17.27.3.57.49.94.23-.17.42-.33.63-.45a2.36,2.36,0,0,1,3.53.8,18.53,18.53,0,0,1,2.27,5c.87,2.65,1.68,5.32,2.52,8,.3.95.57,1.05,1.43.53,1.79-1.09,3.55-2.24,5.36-3.31,2.41-1.42,4.65-3.12,7.18-4.35a39.52,39.52,0,0,0,3.63-2.28c.46-.29,1-.55,1.43-.82,1.2-.7,2.39-1.44,3.62-2.1,1.39-.74,2.82-1.39,4.22-2.11,1.57-.81,3.12-1.65,4.69-2.48l4.69-2.47c2.08-1.1,4.15-2.23,6.25-3.31,1.11-.57,2.25-1.07,3.37-1.62.63-.31,1.23-.66,1.86-1,.8-.37,1.61-.71,2.42-1.05,2.51-1.06,5-2.18,7.53-3.16,1.4-.54,2.91-.81,4.33-1.3,1.26-.43,1.93.19,2.53,1.14a1.51,1.51,0,0,1-1,.87c-2.44.83-4.88,1.63-7.27,2.58-2,.79-3.9,1.76-5.83,2.68-1.42.68-2.83,1.4-4.23,2.12q-3.47,1.78-6.92,3.58a3.51,3.51,0,0,0-.67.59,2.27,2.27,0,0,0,.7-.06q2.09-.79,4.16-1.64c.95-.39,1.88-.83,2.83-1.22s1.77-.65,2.65-1l.52-.2c1.82-.7,3.64-1.41,5.47-2.1a9.31,9.31,0,0,1,1.25-.29l.17.21-.74,1.38a2.31,2.31,0,0,0,1.93-.63,4.17,4.17,0,0,0,1.21.5,1.82,1.82,0,0,1,1.6,1.13c.29.54.64,1.05,1,1.59a38.41,38.41,0,0,1-6.18,3.23q-6.11,2.58-12.2,5.19c-1.28.55-2.53,1.2-3.78,1.81a4,4,0,0,0-.62.53c.39,0,.62.06.72,0,.86-.71,2.12-.27,3-1.09a8.51,8.51,0,0,1,1.92-1.29,10.67,10.67,0,0,1,1.47-.47c1.1-.4,2.2-.83,3.3-1.22a3.18,3.18,0,0,1,.79-.07l0,.53,4.25-.68a.76.76,0,0,1,.49,0c.7.48.69.49,1.25-.19l-.83-1c1.25-.34,2.34-.64,3.43-.92s1.9-.53,2.87-.68a2,2,0,0,1,2.28,1.14,2,2,0,0,1-1.61,1.19c-1.78.44-3.53,1-5.29,1.5-1,.29-2.08.49-3.09.83-3.75,1.27-7.54,2.42-11.16,4-2.08.93-4.17,1.85-6.32,2.63-3.82,1.38-7.39,3.31-11.1,4.94-2.25,1-4.4,2.22-6.61,3.32q-2.67,1.33-5.37,2.59c-1.9.89-3.81,1.76-5.72,2.63a1,1,0,0,1-.77.05,14.12,14.12,0,0,1,1.24-.85c1.16-.63,2.35-1.23,3.53-1.84.55-.28,1-.55,1-1.3a.93.93,0,0,1,.71-.89c.55-.2,1.1-.42,1.64-.66s.82-.42,1.23-.63l-.08-.2-4.51,1.22c-.31.44-.66.69-1,.27l-1.42.79-3,1.63-1.15.61.15-1.35-14.11,5.34,5.47-2.18c2.88-1.15,5.77-2.29,8.67-3.4l.35-3.19a10.1,10.1,0,0,0-1.52.42,21.44,21.44,0,0,0-2.13,1.16,1.21,1.21,0,0,1-1.62-.09l.1-.65c-.13,0-.25-.07-.33,0a3,3,0,0,0-.73.47c-.54.54-1,1.12-1.58,1.65a.89.89,0,0,1-.59.17,3.93,3.93,0,0,1-.76-.17c-.61.91-1.22,1.78-2.55,1.81.05-.31,0-.65.15-.76.56-.42.77-1.29,1.64-1.32.73-1,2.15-1,2.82-2.05.08-.12.39-.11.59-.13a1.08,1.08,0,0,0,1-.83,15.42,15.42,0,0,0-3.7-.59,1,1,0,0,0-.59.25c-.33.29-.61.63-.91.95l-.23-.15.36,1.72-.21.06-3.34-7.7a3.08,3.08,0,0,0,.11,2c.44,1.36.9,2.71,1.32,4.08a3,3,0,0,1,0,.86h0l0,0,0,0,0,0c.45.12.65.39.4,1.11l-.4-1.11,0,0h0c-.37.07-.42.29-.31.63a6.28,6.28,0,0,1,.3,1.17c0,.17-.15.5-.27.52a.78.78,0,0,1-.65-.21,8.77,8.77,0,0,1-1.39-2.83,4.66,4.66,0,0,0-.49-1.23,2.46,2.46,0,0,0-.73-.8,1.42,1.42,0,0,0-1.46.07,1.81,1.81,0,0,0-.15,1.67,6.35,6.35,0,0,0,.49.59c.14.17.4.41.36.52-.29.76.11,1.41.27,2.11,0,0-.08.11-.21.27-.2-.35-.39-.64-.53-1-.45-1-.87-2.09-1.34-3.12a1,1,0,0,0-.47-.55,8,8,0,0,1-4.63-3.66c-.8-1.32-1.79-2.52-2.61-3.83-1-1.53-1.82-3.11-2.71-4.67a2.54,2.54,0,0,1-.13-.64,5.31,5.31,0,0,0-.37-1.36,3.31,3.31,0,0,1-.21-2.36c.07-.35.42-.65.72-1.07l-.95-3.56a1.86,1.86,0,0,1-.16-.62c.17-1.46-.61-2.51-1.44-3.55-.2-.25-.37-.53-.55-.77,1.15-1.28,2.13-1,2.95.8.26-.47.44-.88.69-1.24s.6-.73,1-1.16c-.7-1.13-1.34-2.35-2.16-3.43a1.62,1.62,0,0,1-.21-2.06,12.07,12.07,0,0,1,2.12-.23,1.67,1.67,0,0,1,1.08.66c1,1.31,1.84,2.68,2.76,4a9.84,9.84,0,0,0,1.2,1.58,35,35,0,0,1,4.91,6.12C514.81,196.63,515.93,198.41,517.06,200.18Zm9.18,23.87c-.52.38-.52.38-1.44.17-.22.86-.22.86-.92,1.14l-.18-.78a39.06,39.06,0,0,1-4.1,1.5l-7.5,3.51c2.12-1.79,4.82-2.65,7.5-3.51l4-1.88-.06-.25a7.7,7.7,0,0,1,.92-.15l2.3-1.08a12,12,0,0,1-1.55,1.07A2.9,2.9,0,0,1,526.24,224.05Zm-1,2.84a.91.91,0,0,1-1.31.25C524.59,226.26,524.59,226.26,525.23,226.89Zm-1.75-1-2,1.31C522.44,225.68,522.74,225.49,523.48,225.87Zm-3.13,1.95-1,.47-.09-.14.93-.57Zm-2.81,4.56c.22.59.44,1.08.58,1.59a.91.91,0,0,1-.37,1.1c-.71-.57-.53-1.5-1-2.18Zm-.76-2.53a.42.42,0,0,1,.27-.27c.1,0,.22.12.33.18l-.34.46C516.9,230,516.76,229.93,516.78,229.85Zm9.9-3.16c.14.13.27.28.4.42l-.21.19-.39-.43A2.72,2.72,0,0,1,526.67,226.69Zm-7.47-4.33-.28-.31c.09-.07.21-.22.25-.2a.63.63,0,0,1,.25.28S519.31,222.25,519.2,222.36Zm.71,1.4-.88.48C519,223.35,519,223.35,519.91,223.75Zm-87.69,58.58c-.41.24-.67.5-.21.94a9.79,9.79,0,0,0-3.79,2.08,10.11,10.11,0,0,1-1.85,1.07l1.37.37-1.41,1L420,292.7q-5.07,3.87-10.13,7.74c-1.88,1.43-3.79,2.81-5.66,4.24-.9.69-1.73,1.48-2.63,2.18-2,1.52-3.93,3-5.9,4.5l-3.8,2.86a6.45,6.45,0,0,1-2.57,1.24,6.92,6.92,0,0,1-.87.1c-.4-.67-.69-1.2-1-1.7a1.12,1.12,0,0,1,.08-1.68l5.47-6.07a1.32,1.32,0,0,0,.43-.69c-1,.5-2.08,1-3.11,1.5l-5.64,2.78c-.55.27-1.19.39-1.4,1.12a.8.8,0,0,1-.48.41c-.69.23-1.41.38-2.1.63s-1.25.78-1.87.76a3.35,3.35,0,0,0-1.91.69c-.63.37-1.32.64-2,1-.43.21-.86.29-1.18-.17a1.21,1.21,0,0,1,.18-1.42c.19-.21.39-.42.74-.8a4,4,0,0,1-.68.08,2.7,2.7,0,0,1-.49-.14c.06-.19.06-.47.19-.57,1.2-.91,2.43-1.8,3.65-2.69.11-.08.31-.1.36-.2a6.5,6.5,0,0,1,3.11-2.54,3.51,3.51,0,0,0,.45-.37l-1-.59c1.46-1.76,11.58-9.08,13-9.46a4.06,4.06,0,0,1-.41.56,15.24,15.24,0,0,1-2.93,2.15,17.6,17.6,0,0,0-2.07,1.65c-1.77,1.38-3.56,2.74-5.32,4.13-.39.3-.72.68-1.07,1l.14.2a2.41,2.41,0,0,0,.63-.25c.69-.54,1.34-1.13,2-1.67.46-.36,1-.63,1.45-1s.81-.73,1.25-1.06c1.29-1,2.62-1.91,3.91-2.89s2.55-2,3.82-3c.2-.16.38-.36.59-.5.66-.45,1.37-.84,2-1.33a16.66,16.66,0,0,1,3.27-2.2,1.21,1.21,0,0,0,.57-.5,1.25,1.25,0,0,1,1.17-.86c.07,0,.18,0,.19-.08.28-1.1,1.51-1,2.15-1.66a16.47,16.47,0,0,1,2.27-1.56c.55-.41,1-.93,1.54-1.39.1-.09.24-.28.32-.26.78.19,1-.35,1.34-.87a.63.63,0,0,1,.33-.28c1.17-.33,1.77-1.39,2.69-2,.41-.29.95-.37,1.39-.62a5.65,5.65,0,0,0,2-1.32c.49-.73,1.19-.89,1.83-1.27s1.26-.74,1.86-1.16a9.27,9.27,0,0,0,.95-.84h0l0,0,0,0v0l-.79.11.66-.69.13.58h0l0,0,.69-.08c.26.93-.25,1.79-.19,2.87,1.35-.91,2.55-1.79,3.81-2.55a43.08,43.08,0,0,1,3.73-2.35l.15.2a5.3,5.3,0,0,0-.55.58,7.14,7.14,0,0,0-.43.77,6.55,6.55,0,0,0,1-.29,9,9,0,0,0,1-.62c.11.28.21.5.29.73.3.82.29.81-.38,1.38a45.37,45.37,0,0,1-3.69,3.1c-.86.58-1.6,1.67-3,1.24l-.19-1.14c-.39-.22-.67-.31-1,.19a4.77,4.77,0,0,0-1,1.77c0,.23-.37.45-.6.61-1.88,1.3-3.77,2.57-5.65,3.87a11.77,11.77,0,0,0-3,2.34,1.3,1.3,0,0,1-.55.37,26.58,26.58,0,0,0-4.18,2.45,104.87,104.87,0,0,0-9.1,6.27,1.93,1.93,0,0,0-.2.24,2,2,0,0,0,1.28-.45c2.15-1.28,4.28-2.61,6.43-3.9a45.05,45.05,0,0,0,6.43-4.45c1.11-1,2.42-1.66,3.63-2.5,1.45-1,2.87-2.07,4.34-3.06.49-.33,1-.89,1.76-.44-.25.55-1,.89-.75,1.81,1.17-.55,2.17-1.53,3.68-1.35-.19-.72.19-1,.65-1.27.87-.56,1.67-1.2,2.51-1.81l.64-.46c.46.47.25,1,.33,1.49a3.78,3.78,0,0,1,3.38-2.7l.49,1.17h0l.57,1.14C432.88,281.91,432.56,282.14,432.22,282.33Zm-6-9.9a3.87,3.87,0,0,1,2.53-2C428.13,271.56,427.13,271.86,426.24,272.43Zm9.16,13.19a1.37,1.37,0,0,1-.08-.29s.09-.07.17-.12.11.18.11.27S435.47,285.57,435.4,285.62Zm88.15,100.25c-.77,0-1.46,0-2.14,0-.49,0-.59-.46-.67-.89q-.44-2.49-.93-5a2.64,2.64,0,0,0-.77-1.28,10.06,10.06,0,0,1-1.5-2.28c-.31-.61-.32-1.38-.64-2a7.87,7.87,0,0,1-.66-2.21,3.44,3.44,0,0,0-.49-1,2.34,2.34,0,0,1-.34-1.08,7.78,7.78,0,0,0-.78-2.16c-.44-1-.93-2.07-1.34-3.13-.33-.85-.58-1.74-.89-2.59-.14-.37-.39-.71-.53-1.08-.29-.74-.53-1.51-.82-2.25-.4-1-.85-2-1.23-2.94a5.38,5.38,0,0,1-.19-1.17,2.69,2.69,0,0,0-.11-.85c-.88-1.66-1.46-3.49-2.69-5,.25.93.49,1.87.76,2.8.44,1.52.91,3,1.36,4.55.3,1,.57,2.06.86,3.09a1.78,1.78,0,0,1-.54,1.85c-.2-.38-.36-.64-.48-.92-.61-1.46-1.22-2.91-1.81-4.38-.38-.95-.72-1.91-1.08-2.87l-1.12-3c-.05-.14-.14-.26-.18-.4-.31-.94-.62-1.88-.9-2.83s-.42-1.86-.75-2.75c-.45-1.22-1-2.39-1.54-3.58-.07-.17-.22-.34-.21-.5.08-1.3-.8-2.33-1-3.57a19.29,19.29,0,0,0-.81-2.78l-.26.46a2,2,0,0,1-.34-2,.55.55,0,0,0,0-.42c-.31-.65-.62-1.3-1-1.92a11.83,11.83,0,0,1-1.48-4.35c-.1-.75-.22-1.51-.36-2.26a5,5,0,0,0-.33-.93,6.5,6.5,0,0,1-.86-2.71,1,1,0,0,0-.13-.42c-.93-1.94-1-4.13-1.83-6.11-.09-.22,0-.54.08-.82v0l0,0c-.89-.3-1.56.32-2.3.59-1.64.61-3.28,1.26-4.86,2a26,26,0,0,1-6.24,1.83,20.84,20.84,0,0,1-8.56.26c-1.26-.28-2.56-.4-3.81-.69a24.07,24.07,0,0,1-3.37-1,47.92,47.92,0,0,1-8.72-4.78c-2.59-1.71-4.76-3.9-7.2-5.78a17,17,0,0,1-2-2.14c-1.09-1.2-2.2-2.37-3.22-3.62s-1.93-2.51-2.81-3.82-1.63-2.63-2.41-4a18.24,18.24,0,0,1-1.12-2.15,5.53,5.53,0,0,1-.23-1.38c0-.31-.06-.63-.1-1.07.24.19.56.32.63.52.29.85,1,.7,1.84.81-.72-1.12-1.34-2.06-1.94-3-.31-.49-.58-1-.88-1.52s-.58-.93-.87-1.39a53.92,53.92,0,0,1-4.38-8.79,21.08,21.08,0,0,0-1.19-2.71c-.79-1.38-.82-3-1.28-4.42a42.91,42.91,0,0,1-1.44-8.26c-.22-2.15-.3-4.33-.34-6.49,0-2.46,0-4.93.06-7.4,0-.4.14-.79.19-1.2.22-1.87.44-3.73.62-5.6.12-1.24.1-2.5.26-3.73.21-1.53.54-3,.82-4.56a5.11,5.11,0,0,0,.14-.75,13,13,0,0,1,.71-3.45c.18-.59.28-1.21.42-1.82.26-1.1.51-2.21.81-3.31a21.91,21.91,0,0,1,.76-2.27c.18-.46.4-.91.62-1.36a126.82,126.82,0,0,1,17.22-34.14,13.7,13.7,0,0,1,.72-1.22c1.05-1.51,2.13-3,3.23-4.48a11.36,11.36,0,0,1,1.05-1.11l2.24-2.29c1-1.1,2-2.2,3-3.28l-.07.35c.85-.82,1.71-1.64,2.59-2.43s1.49-1.54,2.3-2.23c1.4-1.2,2.81-2.39,4.3-3.48a47.46,47.46,0,0,1,4.62-3,54.36,54.36,0,0,1,5.07-2.47,29.5,29.5,0,0,1,4.06-1.44c1.31-.35,2.67-.46,4-.75a21.6,21.6,0,0,1,6.16-.21c1.19.08,2.4-.24,3.6-.24a18.5,18.5,0,0,1,5.37.57,17.87,17.87,0,0,0,2.18.17,51.88,51.88,0,0,1,5.42,1.06,9,9,0,0,1,2.79,1.52,3.4,3.4,0,0,1,1.45,3.59,1.39,1.39,0,0,0,.21,1.24,2.81,2.81,0,0,1-.1,3.68,4,4,0,0,0-.79,3.9.68.68,0,0,1-.4.9,6.67,6.67,0,0,1-3.15,1.22,2.55,2.55,0,0,0-1.34.65c-.54.43-.51.48-1.2.35l.15.85-.77-.22c-.08,1-1,1.54-1.55,2.24a5.4,5.4,0,0,1-2.31,1.79v-1c-.33-.35-1.19-.12-1.21.39a2.23,2.23,0,0,1-.68,1.29,2,2,0,0,0-.3,1,8.26,8.26,0,0,0,.09,1.26l-.89.47-.41-2.75c.76-.5.8-1.41,1-2.25a5.81,5.81,0,0,1,.73-1.6,1.14,1.14,0,0,0,0-1.37c-1.31.67-2.16,2.06-3.8,2.08a8.72,8.72,0,0,1-.16-4.28,5.82,5.82,0,0,1,1.93-2.76,1.13,1.13,0,0,1,1.35,0c.46.23.9.49,1.46.8L503,166a17.17,17.17,0,0,0-3.33-3.35,2.6,2.6,0,0,1-.42-.35,3.43,3.43,0,0,0-3.32-1c-1.09.19-2.21.17-3.28.41-1.9.43-3.79.93-5.67,1.49a49.13,49.13,0,0,0-7.51,3.22,50.5,50.5,0,0,0-9.88,6.44c-2.13,1.76-4.26,3.53-6.31,5.38a10.11,10.11,0,0,0-2.73,3.41c-.76,1.75-1.66,3.45-2.49,5.17-.73,1.52-1.48,3-2.13,4.59s-1.32,3.35-2,5c-1.2,3.16-2.48,6.3-3.57,9.5-1,3-1.87,6.12-2.79,9.19,0,.06-.09.1-.31.33.09-.84.12-1.51.24-2.15.42-2.28.86-4.57,1.33-6.84.28-1.37.62-2.73,1-4.09s.64-2.72,1-4.06a19,19,0,0,1,.85-2.15c.95-2.24,1.9-4.47,2.87-6.7.6-1.37,1.23-2.72,1.84-4.09.09-.19.14-.4.26-.74a3.41,3.41,0,0,0-1.58,1.52c-.64,1.34-1.33,2.65-1.92,4a24.6,24.6,0,0,0-.94,2.68c-.55,1.78-.94,3.61-1.64,5.33a26,26,0,0,0-1.18,3.76c-.34,1.41-.7,2.82-1,4.23-.47,2-1,4-1.35,6-.3,1.56-.47,3.14-.7,4.71-.75,5.23-1.63,10.45-2.21,15.7-.65,5.87-1.06,11.78-1.52,17.67-.21,2.72-.3,5.45-.4,8.18,0,.67-.16,1.13-.82,1.39-.37.14-.74.36-.61.93a1.69,1.69,0,0,0,1.29-.51c2.63-2.09,5.25-4.19,7.91-6.24,1.78-1.38,3.6-2.7,5.41-4q4.23-3.12,8.47-6.23a7.6,7.6,0,0,1,.92-.49,1.85,1.85,0,0,0-.07-.59c-1.35-2.95-2.74-5.88-4.07-8.83s-2.6-6-4-9-2.78-5.78-4.21-8.65a9.52,9.52,0,0,0-1.06-1.41c1.16-.76,1.68-1.23,4.46.6l.16-.78.2-.06,1.38,2.46a1.4,1.4,0,0,0,.35,0c1-.4,1.23-.37,1.75.62s1,2.28,1.53,3.43c.19.44.29,1,1.05.74a3.63,3.63,0,0,0-.11-.6c-.48-1.35-1-2.69-1.44-4.05-.11-.34,0-.74-.11-1.08-.23-.85-.49-1.7-.8-2.52-.24-.62-.59-1.17-.29-1.89a1.81,1.81,0,0,0,0-1c-.15-.72-.34-1.43-.52-2.19a1.32,1.32,0,0,1,1.49-.68l.14.86c.82-1,1.09-1,2.13-.32a8.94,8.94,0,0,1,2.9,3.28c.66,1.23,1.37,2.45,1.94,3.72s1,2.54,1.43,3.83c.91,2.69,1.78,5.4,2.68,8.09.52,1.57,1.07,3.13,1.6,4.7.36,1.08.68,2.17,1.07,3.23.21.57.36,1.21.88,1.5,1.31-.69,2.56-1.3,3.75-2,.63-.37,1.42-.55,1.77-1.32,0-.11.24-.16.37-.22a60,60,0,0,1,8.07-3,21.38,21.38,0,0,1,8-.56,1.62,1.62,0,0,0,1.32-.33,10.74,10.74,0,0,1,1.72-1,2.29,2.29,0,0,1,2.38,0l5.12-2.87a7.18,7.18,0,0,1,.9-.42c1.34-.52,1.34-.51,2.66.22.93-.56,2-1.1,2.92-1.79,1.26-.93,2.54-.71,4-.37l-.55,1,.45,1.27-.15.12-.88-.88c-.28.4-.52.79-.8,1.14s-.69.54-.59,1.11c0,.14-.34.42-.58.53-.47.2-1,.31-1.53.49a4.1,4.1,0,0,0-.4-.4c-.78-.62-.86-.61-1.75-.07-.34.21-.75.32-1.08.54-.56.38-1.09.82-1.77,1.35,1.2.13,2.33-.21,3.31.66-.95.85-2.18,1.17-3.19,1.86s-2,1.45-3,2.18l.14.24c.31-.18.62-.39.95-.53s.8-.29,1.2-.45.54-.23.8-.36a11.17,11.17,0,0,1,2.94-1.41,9.71,9.71,0,0,0,1.94-1,3.43,3.43,0,0,1,1.36-.33c.58,0,.79.54.46,1a1.55,1.55,0,0,1-.38.4,8.8,8.8,0,0,1-1.75,1.16c-1.92.74-3.31,2.32-5.17,3.14a1.22,1.22,0,0,0-.81,1.12c1.14.22,1.56,1.22,2,2.08.83,1.56,1.49,3.21,2.28,4.79.47.94,1.08,1.82,1.61,2.73.11.18.11.42.2.62.39.86.79,1.71,1.19,2.57.08.16.18.31.24.48.39,1.11.75,2.24,1.18,3.33a.69.69,0,0,1-.44,1c1,2,1.94,4,2.88,6.05.46,1,.91,2,1.3,3a24.37,24.37,0,0,1,1.29,7.7,55.21,55.21,0,0,1-.58,9,12.08,12.08,0,0,1-.72,2.77c-1.11,2.89-2.11,5.84-3.48,8.6a30.84,30.84,0,0,1-5.62,8.22,25.51,25.51,0,0,1-3.55,3.13c-.69.47-1.22,1.17-1.88,1.68-1.55,1.19-3.13,2.33-4.7,3.48a.86.86,0,0,1-.29.15,5.84,5.84,0,0,0-2.47,1.21,14,14,0,0,1-2.94,1.5c-.43.21-.89.37-1.3.6a3.25,3.25,0,0,0-.6.57h0l0,0,0,0v0c.34.72.68,1.44,1,2.17s.58,1.34.84,2a7.76,7.76,0,0,1,.31,1.16,1.78,1.78,0,0,0,.76,1.29,26.81,26.81,0,0,0-1.84-6.61,1.87,1.87,0,0,1,.33-.36c.62-.38.8-.32,1.05.36.41,1.1.77,2.22,1.21,3.31.59,1.49,1.24,3,2,4.39a36.21,36.21,0,0,0-2.69-8.65l1.83-1c.48-.27,1-.53,1.44-.82.71-.45,1.12-.34,1.44.47s.57,1.65.9,2.46.79,1.74,1.18,2.61a17,17,0,0,1,1.16,2.73,19.7,19.7,0,0,0,1.08,3c.25.59.58,1.14.87,1.71l.24-.08a4.1,4.1,0,0,0-.17-.91,39.78,39.78,0,0,1-1.68-5,35.43,35.43,0,0,0-1.4-3.52c-.4-1-.8-2-1.21-3-.11-.27-.22-.5.2-.57a2.94,2.94,0,0,0-.13-.48c-.27-.59-.06-1,.63-1.33.4.9.81,1.74,1.16,2.61,1.14,2.84,2.28,5.68,3.39,8.53q2,5.1,3.89,10.22,1.45,3.88,2.84,7.79c1.46,4.13,2.9,8.27,4.31,12.42.52,1.53.89,3.11,1.36,4.66.65,2.14,1.36,4.26,2,6.4.52,1.84.9,3.71,1.39,5.56a17.17,17.17,0,0,1,.75,3.76c0,.42,0,.84-.07,1.49l-.8-.72h-.1c0,.79-1,.64-1.18,1.31-.11.47-.35.83-1,.64a4,4,0,0,0,.05.8c.37,1.19.75,2.37,1.13,3.55.3.94.62,1.87.92,2.81a1.24,1.24,0,0,1,.06.44,8,8,0,0,0,1.18,4.31C523.78,384.73,523.57,385.21,523.55,385.87Zm24.73-91.46a2.11,2.11,0,0,1-1-2l0,0,0-.09A10.47,10.47,0,0,1,545.5,288a29.24,29.24,0,0,1,1.76,4.25l.05.07,0,0,0,0s0,0,0,0C547.86,292.95,548.47,293.48,548.28,294.41Zm5.33,12.07-.35-.79.18-.09.42.76Zm41,57.63c-1.73-1.05-2.56-2.82-3.41-4.69a1.19,1.19,0,0,0-.44,1.54c.21.58.34,1.19.52,1.78a10.7,10.7,0,0,0,.35,1.16,2.69,2.69,0,0,1,.09,1.86c-.67,0-1.31.09-2,.09a.68.68,0,0,1-.46-.26,8,8,0,0,1-1.19-1.71c-.77-1.91-1.44-3.85-2.13-5.79-.28-.8-.45-1.63-.77-2.41a7.7,7.7,0,0,0-1-1.6,54.45,54.45,0,0,1-4.3-6.39c-.35-.64-.84-1.2-1.2-1.83-.92-1.64-1.8-3.29-2.69-4.94-.8-1.48-1.62-2.94-2.39-4.44-1.12-2.19-2.24-4.39-3.29-6.62-1.13-2.39-2.17-4.83-3.29-7.23-.88-1.9-1.84-3.76-2.74-5.65-1.07-2.27-2.11-4.55-3.15-6.83-.76-1.67-1.5-3.36-2.24-5s-1.35-3.17-2.09-4.73a13.54,13.54,0,0,0-1.49-2.64,31.18,31.18,0,0,1-2.51-4.5q-1.44-2.62-2.77-5.29c-.84-1.71-1.59-3.46-2.42-5.18a19.93,19.93,0,0,0-2.52-4.49,3.73,3.73,0,0,1-.43-.65,71.22,71.22,0,0,1-3.52-7.12c-.69-1.7-1.43-3.39-2.27-5s-1.69-2.94-2.58-4.38c-1.32-2.13-2.68-4.23-4-6.35a.4.4,0,0,0-.35-.17c.23.59.45,1.18.68,1.76l3.2,7.78q2.3,5.57,4.61,11.14c.91,2.22,1.82,4.43,2.7,6.66a3.28,3.28,0,0,1,.1,1l0,.05,0,0,0,0s0,0,0,0a.66.66,0,0,1,.24.15c.73,1,.78,2.16,1.23,3.22a6.47,6.47,0,0,1-1.47-3.36l0,0s0-.05,0-.08a6,6,0,0,1-.54-.87q-1.46-3.41-2.87-6.83c-.88-2.11-1.73-4.23-2.61-6.34-.43-1-.94-2-1.38-3-1.13-2.6-2.22-5.21-3.35-7.81-1.3-3-2.66-5.91-3.92-8.9-1.19-2.82-2.91-5.35-4.31-8.06-.89-1.74-1.71-3.51-2.5-5.3-.48-1.1-.81-2.27-1.27-3.39-.25-.61-.63-1.17-.91-1.77-.41-.89-.35-1,.5-1.6.36-.25.71-.53,1.18-.88.25.46.5.84.68,1.26.8,1.86,1.57,3.72,2.36,5.58a68.26,68.26,0,0,0,4.19,7.89,5.64,5.64,0,0,1,.26.58l.3-.18c-.25-.75-.47-1.51-.76-2.25q-1.25-3.19-2.56-6.35c-.51-1.22-1.07-2.42-1.73-3.88l1,.41c.34-.55.34-.55-.34-2l.76-1.13c.39,0,.76.07,1.12.13.14,0,.36.08.38.17.25.94,1.26,1.35,1.54,2.3a4.89,4.89,0,0,0,1.53,2.26,10.14,10.14,0,0,1,.94,1.2,1.06,1.06,0,0,0,.67.36,3.05,3.05,0,0,0-.19-.73,16.42,16.42,0,0,1-1.47-4.15,6,6,0,0,0-.55-1.32c-.24-.48-.44-.94,0-1.45l.49.88h.22c0-.25.21-.67.12-.74-.7-.53.29-1.78-1-2.1l-.54,1.48-.47-.69.66-1.23,1-.09c1.4,2,2.08,4.4,3,6.64a7.92,7.92,0,0,0,1.1,1.9,22.76,22.76,0,0,1,2.34,4.1c.25.49.48,1,.74,1.47,1.82,3.45,3.63,6.9,5.48,10.34,1.1,2,2.28,4,3.38,6.07s2.13,4.11,3.28,6.12c.49.86.81,1.88,1.8,2.4.2.1.32.4.44.62.36.68.69,1.38,1.06,2.06q1.71,3.15,3.45,6.28c.64,1.16,1.32,2.3,1.92,3.48s1.26,2.68,1.92,4a11,11,0,0,1,1,1.82,20.92,20.92,0,0,0,1.63,3.82c1.22,2.48,2.46,4.95,3.67,7.43.71,1.45,1.39,2.92,2.09,4.38,1.17,2.45,2.35,4.9,3.51,7.37.64,1.37,1.21,2.77,1.84,4.14.77,1.67,1.59,3.31,2.36,5,.39.84.69,1.71,1.05,2.56.9,2.06,1.82,4.11,2.71,6.18.78,1.83,1.5,3.69,2.29,5.52,1,2.3,2,4.57,3.06,6.86.09.2.16.42.24.62a25.38,25.38,0,0,0,1.29,3c.65,1.13.73,2.44,1.33,3.57a15.86,15.86,0,0,1,.82,2c.66,1.83,1.28,3.68,2,5.51.91,2.44,1.87,4.86,2.81,7.29a22.24,22.24,0,0,1,1.64,6A1,1,0,0,1,594.66,364.11Z" transform="translate(-342.14 -117.42)"/><path class="cls-1" d="M593.27,359c-.18-.58-.42-1.14-.6-1.72-.34-1-.6-2.12-1-3.15-.64-1.73-1.37-3.42-2-5.14-.51-1.29-1-2.59-1.46-3.9-.36-1-.61-2.12-1-3.15-.63-1.61-1.35-3.19-2-4.79-1.08-2.62-2.1-5.27-3.21-7.88-1-2.27-2-4.51-3-6.75-1.13-2.48-2.28-4.94-3.39-7.42-.72-1.61-1.38-3.24-2.08-4.86a3.9,3.9,0,0,0-.41-.61l-.22.13a36.43,36.43,0,0,0,1.47,4.83c.57,1.58,1.06,3.18,1.59,4.78l-.21.08c-.12-.26-.25-.5-.35-.77-.78-2.18-1.58-4.36-2.33-6.56-.49-1.43-.91-2.88-1.37-4.32s-.8-2.6-1.3-3.87-1.15-2.63-1.76-3.92c-.81-1.72-1.62-3.45-2.5-5.14-1-2-2.18-4-3.23-6s-2-4-3-5.92-1.94-3.64-2.92-5.45c-.46-.84-.95-1.66-1.4-2.51-.93-1.75-1.82-3.51-2.76-5.25-.1-.19-.4-.43-.58-.4-.61.09-.65-.36-.81-.71-.28-.65-.56-1.3-.84-2l.57.32c-.09-.42-.22-.93-.47-1-1-.25-1.07-1.1-1.44-1.79a22.53,22.53,0,0,0-1.91-3.6,29.34,29.34,0,0,1-1.62-2.63c-.67-1.09-1.36-2.16-2-3.25l-.22.11c.22.52.42,1,.65,1.56.77,1.67,1.5,3.37,2.33,5,1,2.07,2.17,4.1,3.27,6.14.37.68.8,1.33,1.16,2,.86,1.62,1.67,3.26,2.53,4.87,1.14,2.15,2.35,4.25,3.43,6.42,1.49,3,2.87,6,4.33,8.95,1.75,3.56,3.56,7.09,5.31,10.66,1,2,1.88,4,2.79,6s1.91,4.22,2.83,6.35c.83,1.92,1.63,3.85,2.41,5.79,1,2.36,1.89,4.72,2.83,7.08a11.88,11.88,0,0,1,.78,2.17c.11.61.47.74,1,.85a1.17,1.17,0,0,0,.16,1.54,9.06,9.06,0,0,1,1.05,2.4c.37,1,.63,2,1,3,.66,1.92,1.3,3.84,2,5.73.49,1.27,1.07,2.5,1.67,3.71s1.28,2.37,1.94,3.54a29.7,29.7,0,0,0,3,4.85,6.34,6.34,0,0,1,1.11,2c.25.74.53,1.57-.15,2.27,1.08,1.61,1.5,3.53,2.92,5.17a3.85,3.85,0,0,0,.21-1.18C593.82,360.75,593.55,359.85,593.27,359Z" transform="translate(-342.14 -117.42)"/><path class="cls-1" d="M484.28,313.51l.11.21.52-.28-.11-.2Z" transform="translate(-342.14 -117.42)"/><path class="cls-1" d="M468.84,311.47l.89,0v-.15l-.88-.1Z" transform="translate(-342.14 -117.42)"/><path class="cls-1" d="M567.59,309.43c-.89-2-1.79-4-2.72-5.92-.69-1.46-1.45-2.88-2.17-4.33-.57-1.16-1.1-2.33-1.68-3.49-1.65-3.25-3.32-6.5-5-9.75s-3.28-6.5-4.93-9.75c-.85-1.67-1.66-3.37-2.61-5-.54-.91-.79-2-1.75-2.69.26.74.47,1.5.79,2.2,1.48,3.21,3,6.4,4.5,9.59,1.13,2.4,2.28,4.78,3.43,7.17.52,1.09,1,2.19,1.59,3.25.92,1.72,1.94,3.39,2.84,5.12.75,1.43,1.35,2.94,2.09,4.37,1.4,2.71,2.91,5.38,4.27,8.11s2.46,5.27,3.7,7.9c.43.92.91,1.82,1.37,2.73l.24-.12c-.42-1.06-.81-2.12-1.26-3.17Q569,312.55,567.59,309.43Z" transform="translate(-342.14 -117.42)"/><path class="cls-1" d="M546.72,268.45c.18-.86-.63-1.19-1-1.78A3.88,3.88,0,0,0,546.72,268.45Z" transform="translate(-342.14 -117.42)"/></svg>